<svg xmlns="http://www.w3.org/2000/svg" viewBox="0 0 205.029 150" role="img" aria-label="Aedes">
  <g transform="translate(0 -2.262)">
    <path fill="#00a7e5" d="M131.424,305.69v10.545c0,2.113,1.077,3.227,3.586,3.227h6.778v-17H135.01c-2.509,0-3.586,1.112-3.586,3.229M79.641,316.768c0,2.014,1.361,3.124,3.8,3.124h6.309v-6.241H83.445c-2.443,0-3.8,1.112-3.8,3.117m33.744-52.433c-1.647-.1-2.983-.308-4.527-.308a18.574,18.574,0,0,0-7.1,1.439L64.314,280.384c-3.394,1.335-5.353,3.187-5.353,7.816v51.03l94.65,25.822a36.42,36.42,0,0,0,7.306,1.439,7.712,7.712,0,0,0,5.558-1.951l38.783-30.967C208.347,331.1,210,328.738,210,323.9V273.078ZM96.03,325.126H82.9c-5.811,0-9.644-3.441-9.644-8.358s3.833-8.353,9.644-8.353H89.79V305.69c0-2.117-1.077-3.229-3.586-3.229H75.662V299.09a2.079,2.079,0,0,1,2.295-2.295H87.1c5.666,0,8.93,2.9,8.93,8.574Zm24.888-2.295a2.078,2.078,0,0,1-2.295,2.295h-7.781c-5.67,0-8.931-2.906-8.931-8.569v-9.649h15.314v3.373a2.078,2.078,0,0,1-2.3,2.293h-6.776v3.661c0,2.113,1.075,3.227,3.586,3.227h9.18Zm0-25.067a2.076,2.076,0,0,1-2.295,2.295H101.91v-3.37a2.079,2.079,0,0,1,2.295-2.295h16.713Zm27.111,27.362H134.112c-5.664,0-8.928-2.906-8.928-8.569V305.37c0-5.67,3.263-8.574,8.928-8.574h7.675v-4.948a2.078,2.078,0,0,1,2.295-2.295h3.946Zm5.917-3.263h16.716a2.077,2.077,0,0,1,2.291,2.3v3.37H156.245a2.083,2.083,0,0,1-2.3-2.3Zm19.007-21.7a2.08,2.08,0,0,1-2.3,2.295h-6.882c-2.511,0-3.587,1.112-3.587,3.229v3.659h9.074v3.37a2.079,2.079,0,0,1-2.295,2.295H153.946V305.37c0-5.67,3.263-8.574,8.93-8.574h10.078Zm12.839,24.959h-8.823v-3.371a2.075,2.075,0,0,1,2.293-2.293h6.2c2.4,0,3.586-.934,3.586-2.617,0-1.652-1.183-2.514-2.69-2.979l-3.8-1.218a7.325,7.325,0,0,1-5.232-7.388c0-5.307,3.908-8.464,9.574-8.464h7.747v3.371a2.079,2.079,0,0,1-2.3,2.295h-5.123c-2.41,0-3.593.932-3.593,2.619,0,1.648,1.183,2.511,2.688,2.978l3.807,1.218a7.325,7.325,0,0,1,5.234,7.386c0,5.311-3.908,8.464-9.573,8.464" transform="translate(-58.961 -214.241)"/>
    <path fill="#00a7e5" d="M86.483,247.731l-3.508-8.945h1.291l2.913,7.8,2.913-7.8h1.253l-3.509,8.945Zm7.2-4.411v.044a3.3,3.3,0,0,0,3.323,3.489,4.688,4.688,0,0,0,3.058-1.008v1.229a5.226,5.226,0,0,1-3.058.865,4.69,4.69,0,0,1-.307-9.358c2.257,0,3.754,1.353,3.754,3.9v.839Zm5.539-1.022c-.082-1.869-1.088-2.63-2.586-2.63a2.946,2.946,0,0,0-2.871,2.63Zm4.76,5.433h-1.233v-8.123a6.259,6.259,0,0,1,3.327-.966,6.422,6.422,0,0,1,1.5.187v1.209a5.144,5.144,0,0,0-1.582-.225,4.049,4.049,0,0,0-2.01.452Zm5.724-4.411v.044a3.3,3.3,0,0,0,3.323,3.489,4.677,4.677,0,0,0,3.058-1.008v1.229a5.222,5.222,0,0,1-3.058.865,4.69,4.69,0,0,1-.307-9.358c2.257,0,3.756,1.353,3.756,3.9v.839Zm5.539-1.022c-.082-1.869-1.086-2.63-2.584-2.63a2.952,2.952,0,0,0-2.875,2.63Zm3.531-3.038a11.4,11.4,0,0,1,3.755-.678c2.257,0,3.63.887,3.63,3.122v6.028h-1.231v-5.784c0-1.827-1.293-2.216-2.5-2.216a9.727,9.727,0,0,0-2.421.329v7.672h-1.229Zm11.531,8.471h-1.233v-8.945h1.233Zm17.871-8.471a11.391,11.391,0,0,1,3.755-.678c2.257,0,3.632.887,3.632,3.122v6.028h-1.231v-5.784c0-1.827-1.293-2.216-2.505-2.216a9.67,9.67,0,0,0-2.418.329v7.672h-1.233ZM175,247.731l-3.508-8.945h1.293l2.913,7.8,2.913-7.8h1.253l-3.511,8.945Zm11.284-6.254a1.66,1.66,0,0,0-1.885-1.746,5.328,5.328,0,0,0-2.626.719v-1.167a5.837,5.837,0,0,1,2.769-.7c1.805,0,2.975.8,2.975,2.811v6.178a10.049,10.049,0,0,1-2.542.326c-2.425,0-4.043-.757-4.043-2.646,0-1.763,1.619-2.686,4.349-2.686h1Zm0,2.092h-.922c-1.847,0-3.2.492-3.2,1.681s1.231,1.62,2.873,1.62a7.086,7.086,0,0,0,1.249-.121Zm4.106-4.309a11.407,11.407,0,0,1,3.754-.678c2.257,0,3.632.887,3.632,3.122v6.028h-1.233v-5.784c0-1.827-1.291-2.216-2.5-2.216a9.7,9.7,0,0,0-2.423.329v7.672h-1.231Zm-97.24,25.755,1.756-6.659h2.558l-2.729,9.433H91.9l-1.692-6.158L88.5,267.789H85.705l-2.727-9.433h2.643l1.734,6.659,1.8-6.659h2.222Zm10.23-6.873a4.927,4.927,0,1,1-4.927,4.928,4.759,4.759,0,0,1,4.927-4.928m0,2.2c-1.372,0-2.366,1.035-2.366,2.728a2.392,2.392,0,1,0,2.366-2.728m6.977-1.373a13.7,13.7,0,0,1,4.5-.827c2.454,0,4.042.911,4.042,3.722v5.925h-2.56v-5.755a1.461,1.461,0,0,0-1.67-1.607,6.052,6.052,0,0,0-1.778.274v7.088h-2.537Zm13.678,8.82h-2.538v-9.435h2.538Zm2.749-8.82a13.693,13.693,0,0,1,4.5-.827c2.454,0,4.038.911,4.038,3.722v5.925h-2.558v-5.755a1.461,1.461,0,0,0-1.672-1.607,6.04,6.04,0,0,0-1.776.274v7.088h-2.536Zm29.409,2.282a3.613,3.613,0,0,0-2.41-.869,2.5,2.5,0,0,0-2.686,2.665,2.588,2.588,0,0,0,2.791,2.708,3.831,3.831,0,0,0,2.39-.847V267.3a5.218,5.218,0,0,1-2.75.7,4.638,4.638,0,0,1-4.989-4.9,4.734,4.734,0,0,1,4.967-4.951,4.855,4.855,0,0,1,2.688.7Zm6.445-3.109a4.927,4.927,0,1,1-4.925,4.928,4.761,4.761,0,0,1,4.925-4.928m0,2.2c-1.372,0-2.366,1.035-2.366,2.728a2.392,2.392,0,1,0,2.366-2.728m9.515,7.447h-2.537v-8.714a8.194,8.194,0,0,1,3.764-.871,6.724,6.724,0,0,1,1.964.258v2.451a4.985,4.985,0,0,0-1.9-.316,4.232,4.232,0,0,0-1.289.21Zm4.819-8.864a11.289,11.289,0,0,1,4.124-.783c3.087,0,5.181,1.756,5.181,4.735,0,3.279-1.968,5.119-5.245,5.119a5.107,5.107,0,0,1-1.5-.19v3.787h-2.558Zm2.558,6.66a3.913,3.913,0,0,0,1.311.192,2.589,2.589,0,0,0,2.853-2.814,2.4,2.4,0,0,0-2.643-2.537,4.443,4.443,0,0,0-1.522.232Zm13.127-7.443a4.927,4.927,0,1,1-4.925,4.928,4.761,4.761,0,0,1,4.925-4.928m0,2.2c-1.373,0-2.366,1.035-2.366,2.728a2.392,2.392,0,1,0,4.737,0c0-1.693-.993-2.728-2.37-2.728m9.513,7.447H199.63v-8.714a8.208,8.208,0,0,1,3.766-.871,6.741,6.741,0,0,1,1.968.258v2.451a5,5,0,0,0-1.9-.316,4.254,4.254,0,0,0-1.291.21Zm9.431-6.179c0-.909-.763-1.287-1.692-1.287a5.106,5.106,0,0,0-2.729.783v-2.2a6.452,6.452,0,0,1,3.173-.763c2.156,0,3.764.847,3.764,3.365v6.086a17.542,17.542,0,0,1-3.553.384c-2.39,0-4.23-.72-4.23-2.9,0-1.966,1.586-2.9,4.23-2.9H211.6Zm0,2.2h-.847c-1.185,0-1.882.337-1.882,1.139s.655,1.165,1.67,1.165a4.889,4.889,0,0,0,1.059-.106Zm3.78-5.455H216.8v-2.328h2.538v2.328h2.687v2.112h-2.687v3.787c0,1.077.507,1.417,1.269,1.417a3.2,3.2,0,0,0,1.734-.532v2.328a5.115,5.115,0,0,1-2.432.527,2.8,2.8,0,0,1-3.109-3.065v-4.462h-1.417Zm15.942,5.411v.044a2.6,2.6,0,0,0,2.771,2.006,5.815,5.815,0,0,0,3.151-.847v2.16a6.065,6.065,0,0,1-3.405.865c-3.065,0-4.991-1.88-4.991-4.819,0-3.109,1.968-5.035,4.61-5.035,2.939,0,4.08,1.948,4.08,4.442v1.183Zm3.85-1.522c-.022-1.165-.572-2.008-1.778-2.008-1.1,0-1.818.779-2.05,2.008Zm4.184,2.643a5.454,5.454,0,0,0,3,1.057c.783,0,1.309-.23,1.309-.825,0-.572-.4-.8-1.436-1.013-2.136-.382-3.027-1.231-3.027-2.941,0-2.07,1.565-3.025,3.6-3.025a5.237,5.237,0,0,1,2.771.7V261.1a4.66,4.66,0,0,0-2.686-.909c-.843,0-1.2.36-1.2.8,0,.485.338.739,1.225.953,2.434.441,3.257,1.372,3.257,3.063,0,2.05-1.543,2.981-3.742,2.981a5.98,5.98,0,0,1-3.067-.761ZM130.441,236.961h-1.492v-1.492h1.492Zm14.725,10.77h-1.233v-8.945h1.233Zm.128-10.77H143.8v-1.492h1.492Zm-21.234,19.958h-2.59v-2.591h2.59ZM226.8,267.789H224.26v-9.435H226.8Zm.024-10.87h-2.586v-2.591h2.586Zm-88.83-18.339c-3.147,0-5.166,1.75-5.166,4.656,0,3.069,2.057,4.612,5,4.612a4.163,4.163,0,0,0,1.854-.393v.1c0,2.268-1.057,2.986-3.061,2.986h-2.467V251.6h2.864c2.2,0,3.9-1.075,3.9-3.811v-8.628a8.379,8.379,0,0,0-2.928-.578m1.692,7.827a4.887,4.887,0,0,1-1.854.347c-2.328,0-3.769-1.359-3.769-3.519,0-2.206,1.441-3.52,3.932-3.52a5.346,5.346,0,0,1,1.692.267Zm23.467-7.827c-3.153,0-5.172,1.75-5.172,4.656,0,3.069,2.061,4.612,5.005,4.612a4.17,4.17,0,0,0,1.854-.393v.1c0,2.268-1.055,2.986-3.058,2.986h-2.469V251.6h2.864c2.2,0,3.9-1.075,3.9-3.811v-8.628a8.354,8.354,0,0,0-2.921-.578m1.688,7.827a4.867,4.867,0,0,1-1.854.347c-2.328,0-3.769-1.359-3.769-3.519,0-2.206,1.441-3.52,3.936-3.52a5.357,5.357,0,0,1,1.688.267ZM138.9,269.662v2.132h2.941c2.233,0,4.733-.927,4.733-4.162v-8.769a10.243,10.243,0,0,0-3.824-.721c-3.3,0-5.307,1.816-5.307,4.821,0,3.083,1.988,4.733,4.843,4.733a4.248,4.248,0,0,0,1.732-.318v.194c0,1.435-.859,2.088-2.317,2.088Zm5.117-4.376a4.278,4.278,0,0,1-1.437.276,2.6,2.6,0,1,1,.17-5.2,4.526,4.526,0,0,1,1.267.187Z" transform="translate(-41.134 -233.207)"/>
  </g>
</svg>
