<svg xmlns="http://www.w3.org/2000/svg" viewBox="58 258 155 100">
  <path fill="#00a7e5" d="M131.424,305.69v10.545c0,2.113,1.077,3.227,3.586,3.227h6.778v-17H135.01c-2.509,0-3.586,1.112-3.586,3.229M79.641,316.768c0,2.014,1.361,3.124,3.8,3.124h6.309v-6.241H83.445c-2.443,0-3.8,1.112-3.8,3.117m33.744-52.433c-1.647-.1-2.983-.308-4.527-.308a18.574,18.574,0,0,0-7.1,1.439L64.314,280.384c-3.394,1.335-5.353,3.187-5.353,7.816v51.03l94.65,25.822a36.42,36.42,0,0,0,7.306,1.439,7.712,7.712,0,0,0,5.558-1.951l38.783-30.967C208.347,331.1,210,328.738,210,323.9V273.078ZM96.03,325.126H82.9c-5.811,0-9.644-3.441-9.644-8.358s3.833-8.353,9.644-8.353H89.79V305.69c0-2.117-1.077-3.229-3.586-3.229H75.662V299.09a2.079,2.079,0,0,1,2.295-2.295H87.1c5.666,0,8.93,2.9,8.93,8.574Zm24.888-2.295a2.078,2.078,0,0,1-2.295,2.295h-7.781c-5.67,0-8.931-2.906-8.931-8.569v-9.649h15.314v3.373a2.078,2.078,0,0,1-2.3,2.293h-6.776v3.661c0,2.113,1.075,3.227,3.586,3.227h9.18Zm0-25.067a2.076,2.076,0,0,1-2.295,2.295H101.91v-3.37a2.079,2.079,0,0,1,2.295-2.295h16.713Zm27.111,27.362H134.112c-5.664,0-8.928-2.906-8.928-8.569V305.37c0-5.67,3.263-8.574,8.928-8.574h7.675v-4.948a2.078,2.078,0,0,1,2.295-2.295h3.946Zm5.917-3.263h16.716a2.077,2.077,0,0,1,2.291,2.3v3.37H156.245a2.083,2.083,0,0,1-2.3-2.3Zm19.007-21.7a2.08,2.08,0,0,1-2.3,2.295h-6.882c-2.511,0-3.587,1.112-3.587,3.229v3.659h9.074v3.37a2.079,2.079,0,0,1-2.295,2.295H153.946V305.37c0-5.67,3.263-8.574,8.93-8.574h10.078Zm12.839,24.959h-8.823v-3.371a2.075,2.075,0,0,1,2.293-2.293h6.2c2.4,0,3.586-.934,3.586-2.617,0-1.652-1.183-2.514-2.69-2.979l-3.8-1.218a7.325,7.325,0,0,1-5.232-7.388c0-5.307,3.908-8.464,9.574-8.464h7.747v3.371a2.079,2.079,0,0,1-2.3,2.295h-5.123c-2.41,0-3.593.932-3.593,2.619,0,1.648,1.183,2.511,2.688,2.978l3.807,1.218a7.325,7.325,0,0,1,5.234,7.386c0,5.311-3.908,8.464-9.573,8.464" transform="translate(-58.961 -214.241)"/>
</svg>
